<svg xmlns="http://www.w3.org/2000/svg" xmlns:xlink="http://www.w3.org/1999/xlink" width="1000" height="1000" viewBox="0 0 1000 1000">
  <defs>
    <clipPath id="clip-HuskSync">
      <rect width="1000" height="1000"/>
    </clipPath>
  </defs>
  <g id="HuskSync" clip-path="url(#clip-HuskSync)">
    <rect width="1000" height="1000" fill="#142b42"/>
    <g id="Group_20" data-name="Group 20" transform="translate(-1074.113 47.388)">
      <path id="Exclusion_2" data-name="Exclusion 2" d="M758,881.334,651.683,815.581l36.591-8.125L644.334,634.549l-72.67,172.907H471.552l130.79-315.3V453.008l-.031.045A330.054,330.054,0,0,1,575.144,481.4a343.02,343.02,0,0,1-30.2,25.2,253.15,253.15,0,0,1-37.885,23.381,240.662,240.662,0,0,1-42.307,15.758,369.216,369.216,0,0,1-81.277,12.423l4.137,28.131-94.187-48.334,67.713-83.217,4.995,25.888c.011,0,.9.029,2.509.029,12.375,0,76.747-1.8,128.917-37.43,30.14-20.581,57.025-49.52,74.273-70.172a495.52,495.52,0,0,0,30.507-40.284V236.247H538.834V0H772.362V236.247H711.78V492.156L786.148,788.3l34.418-8.6L758,881.334ZM103.778,807.458v0H0L79.221,462.669V236.247H18.645V0H252.174V236.247H188.657v48.584a351.013,351.013,0,0,0,44.739,28.4c24.292,13.046,60.625,28.768,95.768,29.585,1.3.03,2.6.045,3.894.045,34.018,0,61.818-10.536,79.152-19.374,18.656-9.513,29.653-19.277,29.762-19.374l-16.551-27.3,113.345,18.2L505.676,407.528,485.813,378.57l-.024.019a420.356,420.356,0,0,1-50.308,25.629,364.977,364.977,0,0,1-50.167,17.634c-20,5.318-38.674,8.016-55.5,8.016h-.646a214.144,214.144,0,0,1-53.149-7.371,308.326,308.326,0,0,1-87.357-38.976v79.148a656.38,656.38,0,0,0,11.669,68.317c7.659,33.845,21.225,79.287,42.371,103.564,15.068,17.3,35.541,26.066,60.848,26.066a130.609,130.609,0,0,0,34.434-4.984,113.663,113.663,0,0,0,14.427-4.984l-23.242-37.642,141.548,21.544L410.485,763.583l-19.364-31.194-.015.014a131.964,131.964,0,0,1-21.979,11.8,150.581,150.581,0,0,1-24.354,8.12,131.287,131.287,0,0,1-30.471,3.692,118.86,118.86,0,0,1-15.676-1.034c-24.093-3.215-40.956-6.3-55.849-12.554-14.3-6.008-26.941-14.966-45.247-29.393a183.952,183.952,0,0,1-24.595-23.622,231.923,231.923,0,0,1-17.854-23.4,209.347,209.347,0,0,1-14.564-25.044l-36.74,166.49Z" transform="translate(1163.83 41.945)" fill="#fff"/>
    </g>
  </g>
</svg>
