<svg xmlns="http://www.w3.org/2000/svg" xmlns:xlink="http://www.w3.org/1999/xlink" width="1000" height="1000" viewBox="0 0 1000 1000">
  <defs>
    <clipPath id="clip-HuskChat">
      <rect width="1000" height="1000"/>
    </clipPath>
  </defs>
  <g id="HuskChat" clip-path="url(#clip-HuskChat)">
    <rect width="1000" height="1000" fill="#142b42"/>
    <g id="Group_13" data-name="Group 13">
      <g id="Group_3" data-name="Group 3" transform="translate(7)">
        <path id="Path_6" data-name="Path 6" d="M518.7,258.174v36.533H349.709v74.209H518.7V428.43L435.054,660.445H511.73L553.9,548.611l22.532,111.834h76.416L600.992,428.43V258.174h45.554V80.529h-175.6V258.174Z" transform="translate(289.501 290.705)" fill="#fff"/>
      </g>
      <g id="Group_11" data-name="Group 11" transform="translate(-582.567)">
        <path id="Path_6-2" data-name="Path 6" d="M483.853,258.174v36.533H652.844v74.209H483.853V428.43L567.5,660.445H490.823L448.657,548.611,426.125,660.445H349.709L401.561,428.43V258.174H356.007V80.529h175.6V258.174Z" transform="translate(289.501 290.705)" fill="#fff"/>
      </g>
      <g id="Group_12" data-name="Group 12">
        <path id="Exclusion_1" data-name="Exclusion 1" d="M174,1492a227.642,227.642,0,0,1-35.067-2.7,213.981,213.981,0,0,1-32.662-7.75,196,196,0,0,1-29.556-12.263,173.805,173.805,0,0,1-25.752-16.24,149.713,149.713,0,0,1-21.247-19.684,127.4,127.4,0,0,1-16.043-22.592A110.917,110.917,0,0,1,3.535,1385.8a103.429,103.429,0,0,1,.862-56.645,113.2,113.2,0,0,1,12.539-27.467,133.425,133.425,0,0,1,19.706-24.346,159.5,159.5,0,0,1,25.9-20.48,130.868,130.868,0,0,1-2.08-74.724,140.21,140.21,0,0,1,12.79-31.535,160.925,160.925,0,0,1,20.238-28.537,188.925,188.925,0,0,1,26.8-24.863,219.19,219.19,0,0,1,32.485-20.514,247.025,247.025,0,0,1,37.285-15.49,269.657,269.657,0,0,1,41.2-9.789,288.372,288.372,0,0,1,88.474,0,269.654,269.654,0,0,1,41.2,9.789,247.045,247.045,0,0,1,37.285,15.49,219.187,219.187,0,0,1,32.485,20.514,188.924,188.924,0,0,1,26.8,24.863,160.924,160.924,0,0,1,20.238,28.537,140.211,140.211,0,0,1,12.79,31.535,131.257,131.257,0,0,1-6.574,86.6,157.539,157.539,0,0,1-30.742,45.877,202.294,202.294,0,0,1-46.914,36.305,247.476,247.476,0,0,1-59.549,24.026h0l0,0h0A103.568,103.568,0,0,0,348,1359c0-35.526-18.1-68.925-50.964-94.045S220.477,1226,174,1226c-40.692,0-80.276,10.962-111.46,30.866C86.983,1331.721,174.555,1384,275.5,1384a280.764,280.764,0,0,0,71.262-9.052,106.343,106.343,0,0,1-6.731,23.96,117.859,117.859,0,0,1-12.091,22.146,135.974,135.974,0,0,1-16.895,19.906A157.74,157.74,0,0,1,289.9,1458.2a179.891,179.891,0,0,1-24.832,14.15,199.717,199.717,0,0,1-27.965,10.634A221.084,221.084,0,0,1,174,1492Z" transform="translate(267.5 -993)" fill="#fff"/>
        <path id="Polygon_1" data-name="Polygon 1" d="M36.025,17.828a7,7,0,0,1,13.137,0l32.554,88.359a7,7,0,0,1-6.568,9.42H10.039a7,7,0,0,1-6.568-9.42Z" transform="matrix(-0.777, 0.629, -0.629, -0.777, 762.5, 410.558)" fill="#fff"/>
        <path id="Polygon_2" data-name="Polygon 2" d="M33.519,17.972a7,7,0,0,1,13.148,0L76.747,100.2a7,7,0,0,1-6.574,9.4H10.014a7,7,0,0,1-6.574-9.4Z" transform="matrix(-0.616, -0.788, 0.788, -0.616, 286.868, 550.335)" fill="#fff"/>
      </g>
    </g>
  </g>
</svg>
