<svg xmlns="http://www.w3.org/2000/svg" xmlns:xlink="http://www.w3.org/1999/xlink" width="1000" height="1000" viewBox="0 0 1000 1000">
  <defs>
    <clipPath id="clip-SignSearch">
      <rect width="1000" height="1000"/>
    </clipPath>
  </defs>
  <g id="SignSearch" clip-path="url(#clip-SignSearch)">
    <rect width="1000" height="1000" fill="#142b42"/>
    <g id="Group_9" data-name="Group 9">
      <g id="Group_4" data-name="Group 4">
        <path id="Subtraction_3" data-name="Subtraction 3" d="M-1697.762,936.17h-120.959c0-.371,0-5.042,0-12.99-.034-247.647-.017-299.731,0-299.816L-2140,459.091V35.706L-2074.284-2-1377.8,350.013V773.4l-71.784,33.511-248.178-125.417V936.169Zm-88.724-453.059a8.811,8.811,0,0,0-1.03.06,12.587,12.587,0,0,0-2.765.642,11.872,11.872,0,0,0-2.483,1.236,13.067,13.067,0,0,0-2.206,1.828,16.5,16.5,0,0,0-1.929,2.416,19.925,19.925,0,0,0-1.558,2.835,20.766,20.766,0,0,0-1.093,3.086,23.327,23.327,0,0,0-.629,3.34,27.69,27.69,0,0,0-.168,3.6,20.061,20.061,0,0,0,.408,3.695,21.435,21.435,0,0,0,1.1,3.638,25.126,25.126,0,0,0,1.791,3.586,31.509,31.509,0,0,0,2.489,3.541c1.934,2.355,4.02,4.685,6.2,6.925s4.533,4.468,6.965,6.6c2.448,2.142,5.056,4.254,7.753,6.278,2.722,2.042,5.6,4.048,8.567,5.962,3,1.94,6.085,3.812,9.165,5.565,3.11,1.77,6.319,3.479,9.539,5.077s6.574,3.147,9.926,4.582c3.372,1.443,6.847,2.816,10.328,4.081,4.453,1.618,8.879,3.027,13.155,4.189,4.315,1.172,8.594,2.124,12.719,2.83a112.85,112.85,0,0,0,12.255,1.43c1.979.118,3.964.178,5.9.178,1.968,0,3.942-.062,5.867-.185a86.248,86.248,0,0,0,11.1-1.42,72.133,72.133,0,0,0,10.248-2.8,63.618,63.618,0,0,0,9.358-4.209,60.21,60.21,0,0,0,8.433-5.638,57.541,57.541,0,0,0,7.318-6.981,57.938,57.938,0,0,0,6.011-8.229,63.56,63.56,0,0,0,4.67-9.474,75.1,75.1,0,0,0,3.3-10.707,73.528,73.528,0,0,0,1.842-13.18,61.537,61.537,0,0,0-.7-12.537,57.411,57.411,0,0,0-3.242-11.826,60.664,60.664,0,0,0-5.758-11.056,77.883,77.883,0,0,0-8.236-10.384,103.329,103.329,0,0,0-10.652-9.813,139.689,139.689,0,0,0-12.966-9.2c-4.656-2.937-9.757-5.818-15.16-8.561l-34.9-17.672c-3-1.5-5.791-3.036-8.3-4.556a77.459,77.459,0,0,1-6.761-4.569,49.234,49.234,0,0,1-5.265-4.6,31.418,31.418,0,0,1-3.8-4.64,26.613,26.613,0,0,1-2.534-4.852,26.042,26.042,0,0,1-1.458-5.233,29.2,29.2,0,0,1-.387-5.626,36.41,36.41,0,0,1,.685-6.034,38.078,38.078,0,0,1,2.3-7.6,31.655,31.655,0,0,1,3.708-6.5,31.144,31.144,0,0,1,5.145-5.4,36.272,36.272,0,0,1,6.613-4.308,39.994,39.994,0,0,1,7.889-3.005,48.96,48.96,0,0,1,8.967-1.479c1.432-.107,2.92-.16,4.425-.16,1.821,0,3.724.079,5.657.235a91.847,91.847,0,0,1,11.237,1.662c2.512.525,5,1.118,7.409,1.761,2.422.649,4.822,1.368,7.133,2.137s4.621,1.616,6.848,2.516,4.437,1.876,6.555,2.9,4.261,2.162,6.347,3.377,4.181,2.542,6.233,3.952,4.114,2.939,6.112,4.532,4.026,3.324,5.99,5.117a35.725,35.725,0,0,0,4.125,3.322,24.142,24.142,0,0,0,4.07,2.262,17.471,17.471,0,0,0,4.013,1.2,14.913,14.913,0,0,0,2.432.2,14.471,14.471,0,0,0,1.527-.081,21.313,21.313,0,0,0,3.751-.734,18.558,18.558,0,0,0,3.392-1.368,18.128,18.128,0,0,0,3.028-2.005,19.852,19.852,0,0,0,2.66-2.646,22.77,22.77,0,0,0,2.184-3.11,21.745,21.745,0,0,0,1.6-3.395,22.838,22.838,0,0,0,1.014-3.677,25.931,25.931,0,0,0,.424-3.957,19.218,19.218,0,0,0-.292-4.018,19.156,19.156,0,0,0-1.13-3.861,21.65,21.65,0,0,0-1.967-3.7,26.985,26.985,0,0,0-2.8-3.526c-2.3-2.379-4.744-4.69-7.258-6.87s-5.149-4.271-7.86-6.241-5.539-3.849-8.444-5.612c-2.885-1.751-5.915-3.428-9.005-4.985-3.068-1.545-6.244-3-9.438-4.316-3.172-1.31-6.45-2.525-9.743-3.611-3.269-1.077-6.645-2.058-10.034-2.914-3.357-.848-6.825-1.6-10.309-2.229-4.661-.843-9.265-1.46-13.685-1.834-3.543-.3-7.064-.453-10.467-.453-.806,0-1.62.009-2.418.025a105.536,105.536,0,0,0-12.117.942,94.275,94.275,0,0,0-11.378,2.279,87.374,87.374,0,0,0-10.483,3.5,76.787,76.787,0,0,0-9.444,4.625,71.678,71.678,0,0,0-8.44,5.731,71.131,71.131,0,0,0-7.471,6.823,65.113,65.113,0,0,0-6.357,7.832,67.207,67.207,0,0,0-5.1,8.767,74.471,74.471,0,0,0-3.875,9.708,87.334,87.334,0,0,0-2.673,10.664,84.891,84.891,0,0,0-1.414,12.5,68.931,68.931,0,0,0,.561,11.718A61.218,61.218,0,0,0-1771.089,404a60.516,60.516,0,0,0,4.526,10.286,66.9,66.9,0,0,0,6.569,9.661,81.2,81.2,0,0,0,8.627,9.025,121.937,121.937,0,0,0,23.848,16.385l34.07,18.184c3.266,1.745,6.323,3.5,9.086,5.21,2.779,1.724,5.329,3.447,7.579,5.123a67.156,67.156,0,0,1,6.024,5.015,39.685,39.685,0,0,1,4.432,4.891,27.746,27.746,0,0,1,3.011,4.995,24.832,24.832,0,0,1,1.774,5.333,25.571,25.571,0,0,1,.529,5.657,30.328,30.328,0,0,1-.718,5.967,29.976,29.976,0,0,1-2.3,6.744,24.685,24.685,0,0,1-3.691,5.544,24.937,24.937,0,0,1-5.053,4.342,30.831,30.831,0,0,1-6.387,3.142,31.612,31.612,0,0,1-7.782,1.669c-1.3.121-2.67.183-4.074.183-1.639,0-3.373-.084-5.154-.25a81.063,81.063,0,0,1-10.618-1.768c-3.733-.861-7.753-2.014-11.948-3.426-2.845-.958-5.674-2-8.409-3.1-2.706-1.086-5.4-2.261-8.015-3.492-2.588-1.219-5.157-2.526-7.637-3.883-2.458-1.345-4.9-2.781-7.269-4.27s-4.674-3.061-6.9-4.7-4.426-3.368-6.542-5.162-4.192-3.679-6.19-5.623-3.954-3.98-5.847-6.085a28.442,28.442,0,0,0-3.052-3.082,17.3,17.3,0,0,0-3.01-2.1,11.262,11.262,0,0,0-2.969-1.117A9.142,9.142,0,0,0-1786.486,483.111Zm-169.71-58.188a6.36,6.36,0,0,0-1.161.108,9.448,9.448,0,0,0-2.257.722,9.7,9.7,0,0,0-2.018,1.272,11.87,11.87,0,0,0-1.781,1.821,16.208,16.208,0,0,0-1.546,2.366,20.581,20.581,0,0,0-1.236,2.748,22.215,22.215,0,0,0-.851,2.966,25.335,25.335,0,0,0-.467,3.188,30.259,30.259,0,0,0-.085,3.41,21.646,21.646,0,0,0,.389,3.479,22.149,22.149,0,0,0,.955,3.4,24.417,24.417,0,0,0,1.523,3.318,28.764,28.764,0,0,0,2.1,3.244c1.619,2.142,3.364,4.257,5.188,6.286s3.78,4.028,5.808,5.94,4.207,3.8,6.444,5.6,4.638,3.575,7.1,5.263,5.02,3.326,7.581,4.857,5.2,3,7.871,4.376,5.419,2.683,8.174,3.888c2.774,1.212,5.63,2.354,8.489,3.393,3.658,1.329,7.286,2.462,10.785,3.366a95.833,95.833,0,0,0,10.4,2.1,78.77,78.77,0,0,0,9.986.8c.364,0,.694.007,1.009.007a66.764,66.764,0,0,0,8.549-.54,62.131,62.131,0,0,0,8.985-1.832,54,54,0,0,0,8.265-3.093A50.665,50.665,0,0,0-1840.49,493a51.676,51.676,0,0,0,6.736-5.673,53.3,53.3,0,0,0,5.81-6.881,57.634,57.634,0,0,0,4.729-7.992,66.611,66.611,0,0,0,3.624-9.1,81.2,81.2,0,0,0,2.5-10.194,80.624,80.624,0,0,0,1.281-12.449,66.683,66.683,0,0,0-.76-11.738,59.5,59.5,0,0,0-2.8-10.967,58.525,58.525,0,0,0-4.821-10.144,69.341,69.341,0,0,0-6.816-9.417,85.6,85.6,0,0,0-8.764-8.792,109.758,109.758,0,0,0-10.637-8.136,142.062,142.062,0,0,0-12.416-7.455l-28.612-15.281c-2.466-1.3-4.761-2.639-6.821-3.973a60.485,60.485,0,0,1-5.574-4.047,40.616,40.616,0,0,1-4.359-4.132,27.942,27.942,0,0,1-3.168-4.228,25.824,25.824,0,0,1-2.139-4.477,27.085,27.085,0,0,1-1.268-4.877,31.6,31.6,0,0,1-.4-5.287,39.822,39.822,0,0,1,.468-5.711,40.915,40.915,0,0,1,1.757-7.24,32.342,32.342,0,0,1,2.923-6.252,29.123,29.123,0,0,1,4.109-5.271,30.747,30.747,0,0,1,5.318-4.292,31,31,0,0,1,6.373-3.109,35.5,35.5,0,0,1,7.268-1.708,43.972,43.972,0,0,1,5.632-.351c.834,0,1.7.022,2.558.065a64.219,64.219,0,0,1,9.143,1.166c2.036.4,4.066.87,6.035,1.392s3.919,1.111,5.813,1.754,3.783,1.36,5.584,2.119,3.614,1.6,5.35,2.487,3.479,1.876,5.186,2.942,3.421,2.237,5.1,3.484,3.37,2.61,5.009,4.032,3.3,2.973,4.916,4.582a28.974,28.974,0,0,0,3.381,2.965,18.249,18.249,0,0,0,3.32,1.973,12.381,12.381,0,0,0,3.256.974,10.385,10.385,0,0,0,1.507.111,10.132,10.132,0,0,0,1.687-.142,15.4,15.4,0,0,0,3.012-.825,14.3,14.3,0,0,0,2.712-1.4,15.247,15.247,0,0,0,2.408-1.989,18.17,18.17,0,0,0,2.1-2.574,22.3,22.3,0,0,0,1.71-2.992,22.787,22.787,0,0,0,1.237-3.236,24.732,24.732,0,0,0,.759-3.479,28.117,28.117,0,0,0,.279-3.719,20.765,20.765,0,0,0-.3-3.751,19.753,19.753,0,0,0-.97-3.574,21.006,21.006,0,0,0-1.641-3.391,24.216,24.216,0,0,0-2.308-3.2c-1.893-2.15-3.9-4.229-5.953-6.179s-4.217-3.823-6.432-5.574-4.523-3.412-6.9-4.967c-2.357-1.543-4.829-3.011-7.347-4.364-2.5-1.343-5.088-2.6-7.691-3.725-2.588-1.122-5.257-2.151-7.934-3.056s-5.411-1.707-8.165-2.4c-2.737-.684-5.558-1.27-8.384-1.744a102.478,102.478,0,0,0-11.124-1.263c-1.7-.1-3.394-.144-5.047-.144-1.824,0-3.648.059-5.421.176a74.979,74.979,0,0,0-9.833,1.3,68.815,68.815,0,0,0-9.221,2.528,66.343,66.343,0,0,0-8.484,3.653,61.565,61.565,0,0,0-7.627,4.678,61.055,61.055,0,0,0-6.8,5.69,64.645,64.645,0,0,0-6,6.69,62.939,62.939,0,0,0-5.075,7.608,68.391,68.391,0,0,0-4.038,8.449,78.9,78.9,0,0,0-3.025,9.3A94.853,94.853,0,0,0-1947,316.4a83.005,83.005,0,0,0-.335,22.892,61.783,61.783,0,0,0,6.1,19.812,65.389,65.389,0,0,0,12.7,17.049,95.9,95.9,0,0,0,19.706,14.514l28.007,15.768c2.687,1.515,5.2,3.041,7.461,4.537,2.281,1.508,4.378,3.026,6.231,4.513a54.565,54.565,0,0,1,4.964,4.472,34.284,34.284,0,0,1,3.669,4.418,26.106,26.106,0,0,1,2.518,4.574,25.276,25.276,0,0,1,1.52,4.943,27.474,27.474,0,0,1,.516,5.3,33.223,33.223,0,0,1-.49,5.643,32.293,32.293,0,0,1-1.765,6.44,24.922,24.922,0,0,1-2.907,5.373,22.674,22.674,0,0,1-4.033,4.3,25,25,0,0,1-5.136,3.232,23.327,23.327,0,0,1-6.3,1.905,32.946,32.946,0,0,1-5.236.4c-.734,0-1.5-.021-2.265-.064a56.72,56.72,0,0,1-8.665-1.208,90.791,90.791,0,0,1-9.783-2.717c-2.339-.784-4.66-1.645-6.9-2.56s-4.448-1.9-6.592-2.952c-2.127-1.039-4.244-2.162-6.292-3.339-2.027-1.165-4.046-2.417-6-3.722s-3.867-2.694-5.713-4.144-3.668-2.995-5.427-4.6-3.478-3.293-5.149-5.054c-1.657-1.746-3.3-3.6-4.877-5.507a24.114,24.114,0,0,0-2.545-2.786,13.579,13.579,0,0,0-2.5-1.858,8.22,8.22,0,0,0-2.45-.932A6.5,6.5,0,0,0-1956.2,424.923Z" transform="translate(2250.9 63.831)" fill="#fff"/>
      </g>
    </g>
  </g>
</svg>
